TITLE:   EP152 COMET-TASTROPHE_Animatic_v01 
FCM: NON-DROP FRAME
001  152SQ001 V     C        01:00:39:17 01:00:44:16 01:00:39:17 01:00:44:16 
* 152SQ001SH005 
* FROM CLIP NAME:  152SQ001SH005
002  152SQ002 V     C        01:00:44:16 01:00:47:04 01:00:44:16 01:00:47:04 
* 152SQ002SH010 
* FROM CLIP NAME:  152SQ002SH010
003  152SQ002 V     C        01:00:47:04 01:00:48:14 01:00:47:04 01:00:48:14 
* 152SQ002SH015 
* FROM CLIP NAME:  152SQ002SH015
004  152SQ002 V     C        01:00:48:14 01:00:50:23 01:00:48:14 01:00:50:23 
* 152SQ002SH020 
* FROM CLIP NAME:  152SQ002SH020
005  152SQ002 V     C        01:00:50:23 01:00:53:09 01:00:50:23 01:00:53:09 
* 152SQ002SH025 
* FROM CLIP NAME:  152SQ002SH025
006  152SQ002 V     C        01:00:53:09 01:00:55:20 01:00:53:09 01:00:55:20 
* 152SQ002SH030 
* FROM CLIP NAME:  152SQ002SH030
007  152SQ002 V     C        01:00:55:20 01:01:02:09 01:00:55:20 01:01:02:09 
* 152SQ002SH035 
* FROM CLIP NAME:  152SQ002SH035
008  152SQ002 V     C        01:01:02:09 01:01:06:06 01:01:02:09 01:01:06:06 
* 152SQ002SH040 
* FROM CLIP NAME:  152SQ002SH040
009  152SQ002 V     C        01:01:06:06 01:01:08:09 01:01:06:06 01:01:08:09 
* 152SQ002SH045 
* FROM CLIP NAME:  152SQ002SH045
010  152SQ002 V     C        01:01:08:09 01:01:14:04 01:01:08:09 01:01:14:04 
* 152SQ002SH050 
* FROM CLIP NAME:  152SQ002SH050
011  152SQ002 V     C        01:01:14:04 01:01:17:09 01:01:14:04 01:01:17:09 
* 152SQ002SH055 
* FROM CLIP NAME:  152SQ002SH055
012  152SQ002 V     C        01:01:17:09 01:01:23:11 01:01:17:09 01:01:23:11 
* 152SQ002SH060 
* FROM CLIP NAME:  152SQ002SH060
013  152SQ002 V     C        01:01:23:11 01:01:25:16 01:01:23:11 01:01:25:16 
* 152SQ002SH065 
* FROM CLIP NAME:  152SQ002SH065
014  152SQ002 V     C        01:01:25:16 01:01:30:20 01:01:25:16 01:01:30:20 
* 152SQ002SH070 
* FROM CLIP NAME:  152SQ002SH070
015  152SQ002 V     C        01:01:30:20 01:01:34:18 01:01:30:20 01:01:34:18 
* 152SQ002SH075 
* FROM CLIP NAME:  152SQ002SH075
016  152SQ002 V     C        01:01:34:18 01:01:41:00 01:01:34:18 01:01:41:00 
* 152SQ002SH080 
* FROM CLIP NAME:  152SQ002SH080
017  152SQ002 V     C        01:01:41:00 01:01:44:11 01:01:41:00 01:01:44:11 
* 152SQ002SH085 
* FROM CLIP NAME:  152SQ002SH085
018  152SQ002 V     C        01:01:44:11 01:01:50:01 01:01:44:11 01:01:50:01 
* 152SQ002SH090 
* FROM CLIP NAME:  152SQ002SH090
019  152SQ002 V     C        01:01:50:01 01:01:55:12 01:01:50:01 01:01:55:12 
* 152SQ002SH095 
* FROM CLIP NAME:  152SQ002SH095
020  152SQ003 V     C        01:01:55:12 01:01:56:20 01:01:55:12 01:01:56:20 
* 152SQ003SH100 
* FROM CLIP NAME:  152SQ003SH100
021  152SQ003 V     C        01:01:56:20 01:01:59:10 01:01:56:20 01:01:59:10 
* 152SQ003SH105 
* FROM CLIP NAME:  152SQ003SH105
022  152SQ003 V     C        01:01:59:10 01:02:05:00 01:01:59:10 01:02:05:00 
* 152SQ003SH110 
* FROM CLIP NAME:  152SQ003SH110
023  152SQ003 V     C        01:02:05:00 01:02:10:02 01:02:05:00 01:02:10:02 
* 152SQ003SH115 
* FROM CLIP NAME:  152SQ003SH115
024  152SQ003 V     C        01:02:10:02 01:02:12:09 01:02:10:02 01:02:12:09 
* 152SQ003SH120 
* FROM CLIP NAME:  152SQ003SH120
025  152SQ003 V     C        01:02:12:09 01:02:14:24 01:02:12:09 01:02:14:24 
* 152SQ003SH125 
* FROM CLIP NAME:  152SQ003SH125
026  152SQ003 V     C        01:02:14:24 01:02:17:01 01:02:14:24 01:02:17:01 
* 152SQ003SH130 
* FROM CLIP NAME:  152SQ003SH130
027  152SQ003 V     C        01:02:17:01 01:02:20:07 01:02:17:01 01:02:20:07 
* 152SQ003SH135 
* FROM CLIP NAME:  152SQ003SH135
028  152SQ003 V     C        01:02:20:07 01:02:28:07 01:02:20:07 01:02:28:07 
* 152SQ003SH140 
* FROM CLIP NAME:  152SQ003SH140
029  152SQ003 V     C        01:02:28:07 01:02:30:03 01:02:28:07 01:02:30:03 
* 152SQ003SH145 
* FROM CLIP NAME:  152SQ003SH145
030  152SQ003 V     C        01:02:30:03 01:02:32:21 01:02:30:03 01:02:32:21 
* 152SQ003SH150 
* FROM CLIP NAME:  152SQ003SH150
031  152SQ003 V     C        01:02:32:21 01:02:40:00 01:02:32:21 01:02:40:00 
* 152SQ003SH155 
* FROM CLIP NAME:  152SQ003SH155
032  152SQ003 V     C        01:02:40:00 01:02:47:16 01:02:40:00 01:02:47:16 
* 152SQ003SH160 
* FROM CLIP NAME:  152SQ003SH160
033  152SQ003 V     C        01:02:47:16 01:02:55:21 01:02:47:16 01:02:55:21 
* 152SQ003SH165 
* FROM CLIP NAME:  152SQ003SH165
034  152SQ003 V     C        01:02:55:21 01:02:57:09 01:02:55:21 01:02:57:09 
* 152SQ003SH170 
* FROM CLIP NAME:  152SQ003SH170
035  152SQ004 V     C        01:02:57:09 01:03:09:19 01:02:57:09 01:03:09:19 
* 152SQ004SH175 
* FROM CLIP NAME:  152SQ004SH175
036  152SQ004 V     C        01:03:09:19 01:03:13:00 01:03:09:19 01:03:13:00 
* 152SQ004SH180 
* FROM CLIP NAME:  152SQ004SH180
037  152SQ004 V     C        01:03:13:00 01:03:22:07 01:03:13:00 01:03:22:07 
* 152SQ004SH185 
* FROM CLIP NAME:  152SQ004SH185
038  152SQ004 V     C        01:03:22:07 01:03:24:03 01:03:22:07 01:03:24:03 
* 152SQ004SH190 
* FROM CLIP NAME:  152SQ004SH190
039  152SQ004 V     C        01:03:24:03 01:03:26:22 01:03:24:03 01:03:26:22 
* 152SQ004SH195 
* FROM CLIP NAME:  152SQ004SH195
040  152SQ004 V     C        01:03:26:22 01:03:35:17 01:03:26:22 01:03:35:17 
* 152SQ004SH200 
* FROM CLIP NAME:  152SQ004SH200
041  152SQ004 V     C        01:03:35:17 01:03:37:19 01:03:35:17 01:03:37:19 
* 152SQ004SH205 
* FROM CLIP NAME:  152SQ004SH205
042  152SQ004 V     C        01:03:37:19 01:03:48:21 01:03:37:19 01:03:48:21 
* 152SQ004SH210 
* FROM CLIP NAME:  152SQ004SH210
043  152SQ004 V     C        01:03:48:21 01:03:50:22 01:03:48:21 01:03:50:22 
* 152SQ004SH215 
* FROM CLIP NAME:  152SQ004SH215
044  152SQ004 V     C        01:03:50:22 01:03:54:13 01:03:50:22 01:03:54:13 
* 152SQ004SH220 
* FROM CLIP NAME:  152SQ004SH220
045  152SQ004 V     C        01:03:54:13 01:03:59:15 01:03:54:13 01:03:59:15 
* 152SQ004SH225 
* FROM CLIP NAME:  152SQ004SH225
046  152SQ004 V     C        01:03:59:15 01:04:04:05 01:03:59:15 01:04:04:05 
* 152SQ004SH230 
* FROM CLIP NAME:  152SQ004SH230
047  152SQ004 V     C        01:04:04:05 01:04:11:24 01:04:04:05 01:04:11:24 
* 152SQ004SH235 
* FROM CLIP NAME:  152SQ004SH235
048  152SQ005 V     C        01:04:11:24 01:04:15:15 01:04:11:24 01:04:15:15 
* 152SQ005SH240 
* FROM CLIP NAME:  152SQ005SH240
049  152SQ005 V     C        01:04:15:15 01:04:28:21 01:04:15:15 01:04:28:21 
* 152SQ005SH245 
* FROM CLIP NAME:  152SQ005SH245
050  152SQ005 V     C        01:04:28:21 01:04:30:19 01:04:28:21 01:04:30:19 
* 152SQ005SH250 
* FROM CLIP NAME:  152SQ005SH250
051  152SQ005 V     C        01:04:30:19 01:04:34:08 01:04:30:19 01:04:34:08 
* 152SQ005SH255 
* FROM CLIP NAME:  152SQ005SH255
052  152SQ005 V     C        01:04:34:08 01:04:36:23 01:04:34:08 01:04:36:23 
* 152SQ005SH260 
* FROM CLIP NAME:  152SQ005SH260
053  152SQ005 V     C        01:04:36:23 01:04:38:14 01:04:36:23 01:04:38:14 
* 152SQ005SH265 
* FROM CLIP NAME:  152SQ005SH265
054  152SQ005 V     C        01:04:38:14 01:04:39:22 01:04:38:14 01:04:39:22 
* 152SQ005SH270 
* FROM CLIP NAME:  152SQ005SH270
055  152SQ005 V     C        01:04:39:22 01:04:42:23 01:04:39:22 01:04:42:23 
* 152SQ005SH275 
* FROM CLIP NAME:  152SQ005SH275
056  152SQ005 V     C        01:04:42:23 01:04:45:08 01:04:42:23 01:04:45:08 
* 152SQ005SH280 
* FROM CLIP NAME:  152SQ005SH280
057  152SQ005 V     C        01:04:45:08 01:04:49:19 01:04:45:08 01:04:49:19 
* 152SQ005SH285 
* FROM CLIP NAME:  152SQ005SH285
058  152SQ005 V     C        01:04:49:19 01:04:51:18 01:04:49:19 01:04:51:18 
* 152SQ005SH290 
* FROM CLIP NAME:  152SQ005SH290
059  152SQ005 V     C        01:04:51:18 01:04:53:21 01:04:51:18 01:04:53:21 
* 152SQ005SH295 
* FROM CLIP NAME:  152SQ005SH295
060  152SQ005 V     C        01:04:53:21 01:05:02:09 01:04:53:21 01:05:02:09 
* 152SQ005SH300 
* FROM CLIP NAME:  152SQ005SH300
061  152SQ005 V     C        01:05:02:09 01:05:08:22 01:05:02:09 01:05:08:22 
* 152SQ005SH305 
* FROM CLIP NAME:  152SQ005SH305
062  152SQ005 V     C        01:05:08:22 01:05:19:11 01:05:08:22 01:05:19:11 
* 152SQ005SH310 
* FROM CLIP NAME:  152SQ005SH310
063  152SQ005 V     C        01:05:19:11 01:05:22:03 01:05:19:11 01:05:22:03 
* 152SQ005SH315 
* FROM CLIP NAME:  152SQ005SH315
064  152SQ005 V     C        01:05:22:03 01:05:23:04 01:05:22:03 01:05:23:04 
* 152SQ005SH320 
* FROM CLIP NAME:  152SQ005SH320
065  152SQ005 V     C        01:05:23:04 01:05:27:03 01:05:23:04 01:05:27:03 
* 152SQ005SH325 
* FROM CLIP NAME:  152SQ005SH325
066  152SQ006 V     C        01:05:27:03 01:05:28:18 01:05:27:03 01:05:28:18 
* 152SQ006SH330 
* FROM CLIP NAME:  152SQ006SH330
067  152SQ006 V     C        01:05:28:18 01:05:32:14 01:05:28:18 01:05:32:14 
* 152SQ006SH335 
* FROM CLIP NAME:  152SQ006SH335
068  152SQ006 V     C        01:05:32:14 01:05:34:00 01:05:32:14 01:05:34:00 
* 152SQ006SH340 
* FROM CLIP NAME:  152SQ006SH340
069  152SQ006 V     C        01:05:34:00 01:05:36:02 01:05:34:00 01:05:36:02 
* 152SQ006SH345 
* FROM CLIP NAME:  152SQ006SH345
070  152SQ006 V     C        01:05:36:02 01:05:42:13 01:05:36:02 01:05:42:13 
* 152SQ006SH350 
* FROM CLIP NAME:  152SQ006SH350
071  152SQ006 V     C        01:05:44:02 01:05:46:22 01:05:44:02 01:05:46:22 
* 152SQ006SH355 
* FROM CLIP NAME:  152SQ006SH355
072  152SQ006 V     C        01:05:51:09 01:05:53:17 01:05:51:09 01:05:53:17 
* 152SQ006SH360 
* FROM CLIP NAME:  152SQ006SH360
073  152SQ006 V     C        01:05:57:12 01:05:58:12 01:05:57:12 01:05:58:12 
* 152SQ006SH365 
* FROM CLIP NAME:  152SQ006SH365
074  152SQ006 V     C        01:06:14:18 01:06:16:02 01:06:14:18 01:06:16:02 
* 152SQ006SH370 
* FROM CLIP NAME:  152SQ006SH370
075  152SQ006 V     C        01:06:30:21 01:06:34:05 01:06:30:21 01:06:34:05 
* 152SQ006SH375 
* FROM CLIP NAME:  152SQ006SH375
076  152SQ006 V     C        01:06:56:00 01:07:00:21 01:06:56:00 01:07:00:21 
* 152SQ006SH380 
* FROM CLIP NAME:  152SQ006SH380
077  152SQ006 V     C        01:07:36:15 01:07:42:18 01:07:36:15 01:07:42:18 
* 152SQ006SH385 
* FROM CLIP NAME:  152SQ006SH385
078  152SQ006 V     C        01:07:55:05 01:07:57:10 01:07:55:05 01:07:57:10 
* 152SQ006SH390 
* FROM CLIP NAME:  152SQ006SH390
079  152SQ006 V     C        01:08:00:10 01:08:03:02 01:08:00:10 01:08:03:02 
* 152SQ006SH395 
* FROM CLIP NAME:  152SQ006SH395
080  152SQ006 V     C        01:08:12:06 01:08:15:15 01:08:12:06 01:08:15:15 
* 152SQ006SH400 
* FROM CLIP NAME:  152SQ006SH400
081  152SQ006 V     C        01:08:15:15 01:08:17:10 01:08:15:15 01:08:17:10 
* 152SQ006SH405 
* FROM CLIP NAME:  152SQ006SH405
082  152SQ006 V     C        01:08:17:10 01:08:19:07 01:08:17:10 01:08:19:07 
* 152SQ006SH410 
* FROM CLIP NAME:  152SQ006SH410
083  152SQ006 V     C        01:08:19:07 01:08:24:17 01:08:19:07 01:08:24:17 
* 152SQ006SH415 
* FROM CLIP NAME:  152SQ006SH415
084  152SQ006 V     C        01:08:24:17 01:08:31:16 01:08:24:17 01:08:31:16 
* 152SQ006SH420 
* FROM CLIP NAME:  152SQ006SH420
085  152SQ006 V     C        01:08:31:16 01:08:35:16 01:08:31:16 01:08:35:16 
* 152SQ006SH425 
* FROM CLIP NAME:  152SQ006SH425
086  152SQ006 V     C        01:08:35:16 01:08:40:12 01:08:35:16 01:08:40:12 
* 152SQ006SH430 
* FROM CLIP NAME:  152SQ006SH430
087  152SQ006 V     C        01:08:40:12 01:08:42:12 01:08:40:12 01:08:42:12 
* 152SQ006SH435 
* FROM CLIP NAME:  152SQ006SH435
088  152SQ006 V     C        01:08:42:12 01:08:45:23 01:08:42:12 01:08:45:23 
* 152SQ006SH440 
* FROM CLIP NAME:  152SQ006SH440
089  152SQ006 V     C        01:08:45:23 01:08:59:10 01:08:45:23 01:08:59:10 
* 152SQ006SH445 
* FROM CLIP NAME:  152SQ006SH445
090  152SQ006 V     C        01:08:59:10 01:09:01:12 01:08:59:10 01:09:01:12 
* 152SQ006SH450 
* FROM CLIP NAME:  152SQ006SH450
091  152SQ006 V     C        01:09:01:12 01:09:03:15 01:09:01:12 01:09:03:15 
* 152SQ006SH455 
* FROM CLIP NAME:  152SQ006SH455
092  152SQ006 V     C        01:09:03:15 01:09:10:10 01:09:03:15 01:09:10:10 
* 152SQ006SH460 
* FROM CLIP NAME:  152SQ006SH460
093  152SQ006 V     C        01:09:10:10 01:09:15:18 01:09:10:10 01:09:15:18 
* 152SQ006SH465 
* FROM CLIP NAME:  152SQ006SH465
094  152SQ007 V     C        01:09:15:18 01:09:19:16 01:09:15:18 01:09:19:16 
* 152SQ007SH470 
* FROM CLIP NAME:  152SQ007SH470
095  152SQ007 V     C        01:09:19:16 01:09:29:05 01:09:19:16 01:09:29:05 
* 152SQ007SH475 
* FROM CLIP NAME:  152SQ007SH475
096  152SQ007 V     C        01:09:29:05 01:09:41:19 01:09:29:05 01:09:41:19 
* 152SQ007SH480 
* FROM CLIP NAME:  152SQ007SH480
097  152SQ007 V     C        01:09:41:19 01:09:42:23 01:09:41:19 01:09:42:23 
* 152SQ007SH485 
* FROM CLIP NAME:  152SQ007SH485
098  152SQ007 V     C        01:09:42:23 01:09:44:24 01:09:42:23 01:09:44:24 
* 152SQ007SH490 
* FROM CLIP NAME:  152SQ007SH490
099  152SQ007 V     C        01:09:44:24 01:09:48:12 01:09:44:24 01:09:48:12 
* 152SQ007SH495 
* FROM CLIP NAME:  152SQ007SH495
100  152SQ007 V     C        01:09:48:12 01:09:50:06 01:09:48:12 01:09:50:06 
* 152SQ007SH500 
* FROM CLIP NAME:  152SQ007SH500
101  152SQ007 V     C        01:09:50:06 01:09:52:02 01:09:50:06 01:09:52:02 
* 152SQ007SH505 
* FROM CLIP NAME:  152SQ007SH505
102  152SQ007 V     C        01:09:52:02 01:09:53:17 01:09:52:02 01:09:53:17 
* 152SQ007SH510 
* FROM CLIP NAME:  152SQ007SH510
103  152SQ007 V     C        01:09:53:17 01:09:56:23 01:09:53:17 01:09:56:23 
* 152SQ007SH515 
* FROM CLIP NAME:  152SQ007SH515
104  152SQ007 V     C        01:09:56:23 01:10:01:11 01:09:56:23 01:10:01:11 
* 152SQ007SH520 
* FROM CLIP NAME:  152SQ007SH520
105  152SQ007 V     C        01:10:01:11 01:10:04:05 01:10:01:11 01:10:04:05 
* 152SQ007SH525 
* FROM CLIP NAME:  152SQ007SH525
106  152SQ007 V     C        01:10:04:05 01:10:09:21 01:10:04:05 01:10:09:21 
* 152SQ007SH530 
* FROM CLIP NAME:  152SQ007SH530
107  152SQ007 V     C        01:10:09:21 01:10:13:04 01:10:09:21 01:10:13:04 
* 152SQ007SH535 
* FROM CLIP NAME:  152SQ007SH535
108  152SQ007 V     C        01:10:13:04 01:10:19:00 01:10:13:04 01:10:19:00 
* 152SQ007SH540 
* FROM CLIP NAME:  152SQ007SH540
109  152SQ007 V     C        01:10:19:00 01:10:30:17 01:10:19:00 01:10:30:17 
* 152SQ007SH545 
* FROM CLIP NAME:  152SQ007SH545
110  152SQ007 V     C        01:10:30:17 01:10:39:19 01:10:30:17 01:10:39:19 
* 152SQ007SH550 
* FROM CLIP NAME:  152SQ007SH550