TITLE: TUP_CombinedPasses
FCM: NON-DROP FRAME

001  BL       V     C        00:00:00:00 00:00:12:01 00:00:00:00 00:00:12:01

002  AX       A     C        00:59:48:00 01:01:06:07 00:00:00:01 00:01:18:10
* FROM CLIP NAME: TeamUp_Final_Animatic.mov

003  AX       V     C        00:00:00:10 00:00:06:09 00:00:12:01 00:00:18:00
* FROM CLIP NAME: 001SQ001SH005

004  AX       V     C        00:00:00:05 00:00:04:12 00:00:18:00 00:00:22:07
* FROM CLIP NAME: 001SQ001SH010

005  AX       V     C        00:00:00:05 00:00:03:13 00:00:22:07 00:00:25:15
* FROM CLIP NAME: 001SQ001SH015

006  AX       V     C        00:00:00:05 00:00:01:10 00:00:25:15 00:00:26:20
* FROM CLIP NAME: 001SQ001SH020

007  AX       V     C        00:00:00:05 00:00:07:13 00:00:26:20 00:00:34:04
* FROM CLIP NAME: 001SQ001SH025

008  AX       V     C        00:00:00:05 00:00:04:21 00:00:34:04 00:00:38:20
* FROM CLIP NAME: 001SQ001SH030

009  AX       V     C        00:00:00:05 00:00:08:23 00:00:38:20 00:00:47:14
* FROM CLIP NAME: 001SQ001SH035

010  AX       V     C        00:00:00:05 00:00:01:21 00:00:47:14 00:00:49:06
* FROM CLIP NAME: 001SQ001SH040

011  AX       V     C        00:00:00:05 00:00:01:18 00:00:49:06 00:00:50:19
* FROM CLIP NAME: 001SQ001SH045

012  AX       V     C        00:00:00:05 00:00:03:01 00:00:50:19 00:00:53:15
* FROM CLIP NAME: 001SQ001SH050

013  AX       V     C        00:00:00:05 00:00:07:11 00:00:53:15 00:01:00:21
* FROM CLIP NAME: 001SQ001SH055

014  AX       V     C        00:00:00:05 00:00:03:15 00:01:00:21 00:01:04:07
* FROM CLIP NAME: 001SQ001SH060

015  AX       V     C        00:00:00:05 00:00:03:12 00:01:04:07 00:01:07:14
* FROM CLIP NAME: 001SQ001SH065

016  AX       V     C        00:00:00:05 00:00:02:20 00:01:07:14 00:01:10:05
* FROM CLIP NAME: 001SQ001SH070

017  AX       V     C        00:00:00:05 00:00:04:10 00:01:10:05 00:01:14:10
* FROM CLIP NAME: 001SQ001SH075
